<svg width="368" height="47" viewBox="0 0 368 47" fill="none" xmlns="http://www.w3.org/2000/svg">
<path d="M19.625 11.3L21.65 14.525L4 25.35L21.65 36.275L19.4 39.35L0.4 27.475V23.175L19.625 11.3ZM43.9859 46.15L40.5859 44.65L61.9859 0.524998L65.3359 2.175L43.9859 46.15ZM348.691 11.3L367.916 23.175V27.475L348.941 39.35L346.666 36.25L364.316 25.35L346.666 14.475L348.691 11.3Z" fill="#00CEFF"/>
<path d="M97.8219 6.175C100.005 6.175 101.822 6.45 103.272 7C104.722 7.53333 106.114 8.33333 107.447 9.4L105.497 11.625C104.38 10.675 103.205 10.0167 101.972 9.65C100.755 9.26666 99.4885 9.075 98.1719 9.075C96.1719 9.075 94.3052 9.53333 92.5719 10.45C90.8552 11.3667 89.4719 12.9 88.4219 15.05C87.3719 17.1833 86.8469 20.1083 86.8469 23.825C86.8469 27.4417 87.3469 30.325 88.3469 32.475C89.3469 34.625 90.6885 36.175 92.3719 37.125C94.0719 38.075 95.9552 38.55 98.0219 38.55C100.005 38.55 101.63 38.2667 102.897 37.7C104.18 37.1333 105.272 36.475 106.172 35.725L107.972 38.025C107.005 38.9583 105.705 39.775 104.072 40.475C102.455 41.1583 100.455 41.5 98.0719 41.5C95.3885 41.5 92.9385 40.825 90.7219 39.475C88.5219 38.1083 86.7719 36.1167 85.4719 33.5C84.1719 30.8667 83.5219 27.6417 83.5219 23.825C83.5219 19.9583 84.1802 16.7167 85.4969 14.1C86.8302 11.4833 88.5802 9.50833 90.7469 8.175C92.9302 6.84167 95.2885 6.175 97.8219 6.175ZM140.752 31.65C140.752 33.5667 140.277 35.2667 139.327 36.75C138.394 38.2333 137.027 39.4 135.227 40.25C133.427 41.0833 131.227 41.5 128.627 41.5C126.344 41.5 124.202 41.1417 122.202 40.425C120.219 39.7083 118.502 38.6583 117.052 37.275L119.152 34.875C120.319 35.9917 121.677 36.8917 123.227 37.575C124.777 38.2417 126.636 38.575 128.802 38.575C130.269 38.575 131.661 38.325 132.977 37.825C134.294 37.325 135.369 36.5583 136.202 35.525C137.036 34.4917 137.452 33.175 137.452 31.575C137.452 30.375 137.227 29.3583 136.777 28.525C136.327 27.675 135.527 26.925 134.377 26.275C133.227 25.6083 131.611 24.975 129.527 24.375C127.394 23.7583 125.494 23.0583 123.827 22.275C122.161 21.475 120.852 20.475 119.902 19.275C118.952 18.0583 118.477 16.525 118.477 14.675C118.477 13.075 118.911 11.6333 119.777 10.35C120.661 9.06666 121.894 8.05 123.477 7.3C125.061 6.55 126.919 6.175 129.052 6.175C131.336 6.175 133.311 6.5 134.977 7.15C136.661 7.8 138.211 8.73333 139.627 9.95L137.477 12.3C136.227 11.1667 134.877 10.35 133.427 9.85C131.994 9.35 130.536 9.1 129.052 9.1C127.736 9.1 126.519 9.30833 125.402 9.725C124.286 10.125 123.386 10.7333 122.702 11.55C122.019 12.3667 121.677 13.4083 121.677 14.675C121.677 15.7417 121.961 16.6667 122.527 17.45C123.094 18.2167 124.044 18.925 125.377 19.575C126.727 20.2083 128.544 20.8583 130.827 21.525C132.494 21.9917 134.086 22.5917 135.602 23.325C137.119 24.0417 138.352 25.0583 139.302 26.375C140.269 27.675 140.752 29.4333 140.752 31.65ZM175.233 31.65C175.233 33.5667 174.758 35.2667 173.808 36.75C172.874 38.2333 171.508 39.4 169.708 40.25C167.908 41.0833 165.708 41.5 163.108 41.5C160.824 41.5 158.683 41.1417 156.683 40.425C154.699 39.7083 152.983 38.6583 151.533 37.275L153.633 34.875C154.799 35.9917 156.158 36.8917 157.708 37.575C159.258 38.2417 161.116 38.575 163.283 38.575C164.749 38.575 166.141 38.325 167.458 37.825C168.774 37.325 169.849 36.5583 170.683 35.525C171.516 34.4917 171.933 33.175 171.933 31.575C171.933 30.375 171.708 29.3583 171.258 28.525C170.808 27.675 170.008 26.925 168.858 26.275C167.708 25.6083 166.091 24.975 164.008 24.375C161.874 23.7583 159.974 23.0583 158.308 22.275C156.641 21.475 155.333 20.475 154.383 19.275C153.433 18.0583 152.958 16.525 152.958 14.675C152.958 13.075 153.391 11.6333 154.258 10.35C155.141 9.06666 156.374 8.05 157.958 7.3C159.541 6.55 161.399 6.175 163.533 6.175C165.816 6.175 167.791 6.5 169.458 7.15C171.141 7.8 172.691 8.73333 174.108 9.95L171.958 12.3C170.708 11.1667 169.358 10.35 167.908 9.85C166.474 9.35 165.016 9.1 163.533 9.1C162.216 9.1 160.999 9.30833 159.883 9.725C158.766 10.125 157.866 10.7333 157.183 11.55C156.499 12.3667 156.158 13.4083 156.158 14.675C156.158 15.7417 156.441 16.6667 157.008 17.45C157.574 18.2167 158.524 18.925 159.858 19.575C161.208 20.2083 163.024 20.8583 165.308 21.525C166.974 21.9917 168.566 22.5917 170.083 23.325C171.599 24.0417 172.833 25.0583 173.783 26.375C174.749 27.675 175.233 29.4333 175.233 31.65ZM203.363 41V25.8H193.363V41H186.513V6.425H193.363V20.175H203.363V6.425H210.213V41H203.363ZM238.444 33.075H227.069L224.919 41H217.844L228.669 6.425H237.069L247.869 41H240.594L238.444 33.075ZM228.294 27.95H237.169L232.744 11.55L228.294 27.95ZM270.224 5.675C272.624 5.675 274.658 5.99166 276.324 6.625C277.991 7.24166 279.533 8.13333 280.949 9.3L277.474 13.425C276.491 12.5917 275.408 11.9583 274.224 11.525C273.058 11.0917 271.808 10.875 270.474 10.875C268.874 10.875 267.399 11.3 266.049 12.15C264.716 13 263.641 14.3667 262.824 16.25C262.024 18.1167 261.624 20.5833 261.624 23.65C261.624 26.6667 262.008 29.1083 262.774 30.975C263.558 32.8417 264.616 34.2083 265.949 35.075C267.299 35.925 268.824 36.35 270.524 36.35C272.324 36.35 273.816 36.0333 274.999 35.4C276.183 34.7667 277.249 34.075 278.199 33.325L281.424 37.4C280.208 38.6 278.683 39.625 276.849 40.475C275.033 41.325 272.824 41.75 270.224 41.75C267.208 41.75 264.516 41.0583 262.149 39.675C259.783 38.2917 257.924 36.2583 256.574 33.575C255.224 30.8917 254.549 27.5833 254.549 23.65C254.549 19.7833 255.241 16.5167 256.624 13.85C258.024 11.1667 259.908 9.13333 262.274 7.75C264.658 6.36666 267.308 5.675 270.224 5.675ZM297.405 41H290.555V6.425H297.405V41ZM297.655 22.55L308.555 6.425H315.905L304.805 22.05L316.855 41H308.78L297.655 22.55Z" fill="white"/>
</svg>
