<svg width="342" height="162" viewBox="0 0 342 162" fill="none" xmlns="http://www.w3.org/2000/svg">
<path d="M75.6818 0.0982208C67.0437 0.756317 59.0127 2.57472 51.1378 5.6747C48.137 6.85234 42.1528 9.83109 39.2908 11.5629C17.7823 24.5862 3.59363 46.4592 0.592844 71.1897C-1.57535 89.0795 2.24067 107.108 11.4338 122.452C18.3374 133.951 27.756 143.407 39.2908 150.386C42.1528 152.118 48.137 155.097 51.1378 156.274C54.8498 157.729 59.1168 159.063 62.5859 159.859C73.4616 162.353 84.3026 162.665 95.0915 160.812C114.623 157.469 132.263 147.026 144.7 131.475C147.041 128.565 150.198 124.028 149.99 123.872C149.956 123.837 134.483 114.191 115.629 102.432C96.7567 90.6727 81.3191 81.0265 81.3191 80.9745C81.3191 80.9226 96.7567 71.2763 115.629 59.5172C134.483 47.7581 149.956 38.1118 149.99 38.0772C150.198 37.9213 146.989 33.3147 144.544 30.284C139.201 23.6337 132.905 17.9187 125.689 13.1908C114.727 6.02106 102.567 1.70882 89.4542 0.357986C86.2799 0.0289459 78.6132 -0.109604 75.6818 0.0982208Z" fill="#FFFE00"/>
<ellipse cx="93.5" cy="37" rx="6.5" ry="6" fill="#2C2C4F"/>
<path d="M146.216 74.368L145.736 84.88H142.676L142.184 74.368H146.216ZM144.2 87.064C144.808 87.064 145.32 87.28 145.736 87.712C146.16 88.136 146.372 88.644 146.372 89.236C146.372 89.828 146.16 90.34 145.736 90.772C145.32 91.196 144.808 91.408 144.2 91.408C143.608 91.408 143.096 91.196 142.664 90.772C142.24 90.34 142.028 89.828 142.028 89.236C142.028 88.644 142.24 88.136 142.664 87.712C143.096 87.28 143.608 87.064 144.2 87.064ZM163.739 78.256V88.408H166.979V91H156.335V88.408H159.947V80.848H156.455V78.256H163.739ZM161.447 71.584C162.103 71.584 162.639 71.788 163.055 72.196C163.471 72.604 163.679 73.112 163.679 73.72C163.679 74.328 163.471 74.84 163.055 75.256C162.639 75.664 162.103 75.868 161.447 75.868C160.783 75.868 160.239 75.664 159.815 75.256C159.399 74.84 159.191 74.328 159.191 73.72C159.191 73.112 159.399 72.604 159.815 72.196C160.239 71.788 160.783 71.584 161.447 71.584ZM182.641 77.836C183.249 77.836 183.749 77.964 184.141 78.22C184.533 78.476 184.825 78.88 185.017 79.432C185.209 79.976 185.305 80.688 185.305 81.568V91H182.053V82C182.053 81.552 182.009 81.236 181.921 81.052C181.841 80.868 181.673 80.776 181.417 80.776C181.217 80.776 181.009 80.836 180.793 80.956C180.585 81.068 180.353 81.284 180.097 81.604V91H177.433V82C177.433 81.552 177.389 81.236 177.301 81.052C177.221 80.868 177.053 80.776 176.797 80.776C176.597 80.776 176.389 80.836 176.173 80.956C175.965 81.068 175.733 81.284 175.477 81.604V91H172.177V78.256H174.961L175.213 79.492C175.613 78.948 176.017 78.536 176.425 78.256C176.833 77.976 177.317 77.836 177.877 77.836C178.357 77.836 178.765 77.96 179.101 78.208C179.445 78.448 179.689 78.828 179.833 79.348C180.217 78.9 180.641 78.536 181.105 78.256C181.569 77.976 182.081 77.836 182.641 77.836Z" fill="#FF144A"/>
<path d="M197.548 77.836C198.66 77.836 199.556 78.112 200.236 78.664C200.916 79.216 201.412 79.996 201.724 81.004C202.044 82.012 202.204 83.208 202.204 84.592C202.204 85.904 202.012 87.076 201.628 88.108C201.244 89.132 200.688 89.94 199.96 90.532C199.232 91.116 198.348 91.408 197.308 91.408C196.068 91.408 195.06 90.964 194.284 90.076V95.92L190.492 96.316V78.256H193.852L194.02 79.684C194.54 79.02 195.108 78.548 195.724 78.268C196.34 77.98 196.948 77.836 197.548 77.836ZM196.372 80.632C195.932 80.632 195.544 80.764 195.208 81.028C194.872 81.292 194.564 81.652 194.284 82.108V87.484C194.548 87.876 194.824 88.164 195.112 88.348C195.408 88.532 195.756 88.624 196.156 88.624C196.828 88.624 197.352 88.32 197.728 87.712C198.104 87.096 198.292 86.072 198.292 84.64C198.292 83.584 198.216 82.768 198.064 82.192C197.912 81.608 197.692 81.204 197.404 80.98C197.116 80.748 196.772 80.632 196.372 80.632ZM213.283 77.836C214.595 77.836 215.711 78.116 216.631 78.676C217.551 79.236 218.255 80.024 218.743 81.04C219.231 82.048 219.475 83.232 219.475 84.592C219.475 86.008 219.227 87.228 218.731 88.252C218.243 89.268 217.539 90.048 216.619 90.592C215.699 91.136 214.587 91.408 213.283 91.408C211.987 91.408 210.875 91.14 209.947 90.604C209.027 90.068 208.319 89.292 207.823 88.276C207.335 87.26 207.091 86.04 207.091 84.616C207.091 83.264 207.335 82.08 207.823 81.064C208.319 80.048 209.027 79.256 209.947 78.688C210.875 78.12 211.987 77.836 213.283 77.836ZM213.283 80.632C212.507 80.632 211.931 80.952 211.555 81.592C211.187 82.224 211.003 83.232 211.003 84.616C211.003 86.024 211.187 87.044 211.555 87.676C211.931 88.308 212.507 88.624 213.283 88.624C214.059 88.624 214.631 88.308 214.999 87.676C215.375 87.044 215.563 86.016 215.563 84.592C215.563 83.216 215.375 82.212 214.999 81.58C214.631 80.948 214.059 80.632 213.283 80.632ZM225.153 91V88.456H226.833V80.776H225.153V78.256H229.725L230.421 81.124C230.877 80.028 231.457 79.212 232.161 78.676C232.873 78.14 233.741 77.872 234.765 77.872C235.197 77.872 235.581 77.908 235.917 77.98C236.253 78.044 236.569 78.136 236.865 78.256L235.713 81.388C235.481 81.324 235.249 81.276 235.017 81.244C234.785 81.212 234.529 81.196 234.249 81.196C233.417 81.196 232.685 81.536 232.053 82.216C231.429 82.896 230.953 83.76 230.625 84.808V88.456H233.145V91H225.153ZM233.781 83.584V79.864L234.345 78.256H236.865L236.157 83.584H233.781Z" fill="#76FD13"/>
<path d="M253.776 90.256C253.28 90.576 252.68 90.848 251.976 91.072C251.272 91.296 250.48 91.408 249.6 91.408C247.936 91.408 246.7 90.984 245.892 90.136C245.084 89.28 244.68 88.12 244.68 86.656V80.872H242.004V78.256H244.68V75.496L248.472 75.04V78.256H252.576L252.204 80.872H248.472V86.656C248.472 87.288 248.616 87.74 248.904 88.012C249.192 88.284 249.652 88.42 250.284 88.42C250.732 88.42 251.14 88.368 251.508 88.264C251.884 88.152 252.22 88.012 252.516 87.844L253.776 90.256ZM270.302 87.328C270.302 87.808 270.366 88.156 270.494 88.372C270.63 88.588 270.846 88.752 271.142 88.864L270.362 91.36C269.61 91.288 268.974 91.124 268.454 90.868C267.942 90.604 267.538 90.208 267.242 89.68C266.754 90.264 266.13 90.7 265.37 90.988C264.61 91.268 263.834 91.408 263.042 91.408C261.73 91.408 260.682 91.036 259.898 90.292C259.122 89.54 258.734 88.576 258.734 87.4C258.734 86.016 259.274 84.948 260.354 84.196C261.442 83.444 262.97 83.068 264.938 83.068H266.654V82.588C266.654 81.924 266.438 81.432 266.006 81.112C265.582 80.792 264.958 80.632 264.134 80.632C263.726 80.632 263.202 80.692 262.562 80.812C261.922 80.924 261.282 81.088 260.642 81.304L259.766 78.784C260.59 78.472 261.446 78.236 262.334 78.076C263.23 77.916 264.03 77.836 264.734 77.836C266.63 77.836 268.03 78.224 268.934 79C269.846 79.768 270.302 80.88 270.302 82.336V87.328ZM264.35 88.696C264.758 88.696 265.186 88.576 265.634 88.336C266.082 88.088 266.422 87.74 266.654 87.292V85.228H265.718C264.662 85.228 263.886 85.392 263.39 85.72C262.894 86.04 262.646 86.512 262.646 87.136C262.646 87.624 262.794 88.008 263.09 88.288C263.394 88.56 263.814 88.696 264.35 88.696Z" fill="#00CEFF"/>
<path d="M276.845 91V78.256H280.157L280.421 79.732C280.989 79.092 281.589 78.616 282.221 78.304C282.853 77.992 283.573 77.836 284.381 77.836C285.469 77.836 286.325 78.168 286.949 78.832C287.573 79.496 287.885 80.432 287.885 81.64V91H284.093V82.732C284.093 82.212 284.057 81.8 283.985 81.496C283.913 81.184 283.785 80.964 283.601 80.836C283.425 80.7 283.181 80.632 282.869 80.632C282.605 80.632 282.345 80.692 282.089 80.812C281.841 80.924 281.597 81.088 281.357 81.304C281.117 81.52 280.877 81.78 280.637 82.084V91H276.845ZM305.588 90.256C305.092 90.576 304.492 90.848 303.788 91.072C303.084 91.296 302.292 91.408 301.412 91.408C299.748 91.408 298.512 90.984 297.704 90.136C296.896 89.28 296.492 88.12 296.492 86.656V80.872H293.816V78.256H296.492V75.496L300.284 75.04V78.256H304.388L304.016 80.872H300.284V86.656C300.284 87.288 300.428 87.74 300.716 88.012C301.004 88.284 301.464 88.42 302.096 88.42C302.544 88.42 302.952 88.368 303.32 88.264C303.696 88.152 304.032 88.012 304.328 87.844L305.588 90.256Z" fill="#4B4ED1"/>
</svg>
