<svg width="377" height="66" viewBox="0 0 377 66" fill="none" xmlns="http://www.w3.org/2000/svg">
<path d="M23.625 20.3L25.65 23.525L8 34.35L25.65 45.275L23.4 48.35L4.4 36.475V32.175L23.625 20.3ZM47.9859 55.15L44.5859 53.65L65.9859 9.525L69.3359 11.175L47.9859 55.15ZM352.691 20.3L371.916 32.175V36.475L352.941 48.35L350.666 45.25L368.316 34.35L350.666 23.475L352.691 20.3Z" fill="#00CEFF"/>
<path d="M101.822 15.175C104.005 15.175 105.822 15.45 107.272 16C108.722 16.5333 110.114 17.3333 111.447 18.4L109.497 20.625C108.38 19.675 107.205 19.0167 105.972 18.65C104.755 18.2667 103.489 18.075 102.172 18.075C100.172 18.075 98.3052 18.5333 96.5719 19.45C94.8552 20.3667 93.4719 21.9 92.4219 24.05C91.3719 26.1833 90.8469 29.1083 90.8469 32.825C90.8469 36.4417 91.3469 39.325 92.3469 41.475C93.3469 43.625 94.6885 45.175 96.3719 46.125C98.0719 47.075 99.9552 47.55 102.022 47.55C104.005 47.55 105.63 47.2667 106.897 46.7C108.18 46.1333 109.272 45.475 110.172 44.725L111.972 47.025C111.005 47.9583 109.705 48.775 108.072 49.475C106.455 50.1583 104.455 50.5 102.072 50.5C99.3885 50.5 96.9385 49.825 94.7219 48.475C92.5219 47.1083 90.7719 45.1167 89.4719 42.5C88.1719 39.8667 87.5219 36.6417 87.5219 32.825C87.5219 28.9583 88.1802 25.7167 89.4969 23.1C90.8302 20.4833 92.5802 18.5083 94.7469 17.175C96.9302 15.8417 99.2885 15.175 101.822 15.175ZM144.752 40.65C144.752 42.5667 144.277 44.2667 143.327 45.75C142.394 47.2333 141.027 48.4 139.227 49.25C137.427 50.0833 135.227 50.5 132.627 50.5C130.344 50.5 128.202 50.1417 126.202 49.425C124.219 48.7083 122.502 47.6583 121.052 46.275L123.152 43.875C124.319 44.9917 125.677 45.8917 127.227 46.575C128.777 47.2417 130.636 47.575 132.802 47.575C134.269 47.575 135.661 47.325 136.977 46.825C138.294 46.325 139.369 45.5583 140.202 44.525C141.036 43.4917 141.452 42.175 141.452 40.575C141.452 39.375 141.227 38.3583 140.777 37.525C140.327 36.675 139.527 35.925 138.377 35.275C137.227 34.6083 135.611 33.975 133.527 33.375C131.394 32.7583 129.494 32.0583 127.827 31.275C126.161 30.475 124.852 29.475 123.902 28.275C122.952 27.0583 122.477 25.525 122.477 23.675C122.477 22.075 122.911 20.6333 123.777 19.35C124.661 18.0667 125.894 17.05 127.477 16.3C129.061 15.55 130.919 15.175 133.052 15.175C135.336 15.175 137.311 15.5 138.977 16.15C140.661 16.8 142.211 17.7333 143.627 18.95L141.477 21.3C140.227 20.1667 138.877 19.35 137.427 18.85C135.994 18.35 134.536 18.1 133.052 18.1C131.736 18.1 130.519 18.3083 129.402 18.725C128.286 19.125 127.386 19.7333 126.702 20.55C126.019 21.3667 125.677 22.4083 125.677 23.675C125.677 24.7417 125.961 25.6667 126.527 26.45C127.094 27.2167 128.044 27.925 129.377 28.575C130.727 29.2083 132.544 29.8583 134.827 30.525C136.494 30.9917 138.086 31.5917 139.602 32.325C141.119 33.0417 142.352 34.0583 143.302 35.375C144.269 36.675 144.752 38.4333 144.752 40.65ZM179.233 40.65C179.233 42.5667 178.758 44.2667 177.808 45.75C176.874 47.2333 175.508 48.4 173.708 49.25C171.908 50.0833 169.708 50.5 167.108 50.5C164.824 50.5 162.683 50.1417 160.683 49.425C158.699 48.7083 156.983 47.6583 155.533 46.275L157.633 43.875C158.799 44.9917 160.158 45.8917 161.708 46.575C163.258 47.2417 165.116 47.575 167.283 47.575C168.749 47.575 170.141 47.325 171.458 46.825C172.774 46.325 173.849 45.5583 174.683 44.525C175.516 43.4917 175.933 42.175 175.933 40.575C175.933 39.375 175.708 38.3583 175.258 37.525C174.808 36.675 174.008 35.925 172.858 35.275C171.708 34.6083 170.091 33.975 168.008 33.375C165.874 32.7583 163.974 32.0583 162.308 31.275C160.641 30.475 159.333 29.475 158.383 28.275C157.433 27.0583 156.958 25.525 156.958 23.675C156.958 22.075 157.391 20.6333 158.258 19.35C159.141 18.0667 160.374 17.05 161.958 16.3C163.541 15.55 165.399 15.175 167.533 15.175C169.816 15.175 171.791 15.5 173.458 16.15C175.141 16.8 176.691 17.7333 178.108 18.95L175.958 21.3C174.708 20.1667 173.358 19.35 171.908 18.85C170.474 18.35 169.016 18.1 167.533 18.1C166.216 18.1 164.999 18.3083 163.883 18.725C162.766 19.125 161.866 19.7333 161.183 20.55C160.499 21.3667 160.158 22.4083 160.158 23.675C160.158 24.7417 160.441 25.6667 161.008 26.45C161.574 27.2167 162.524 27.925 163.858 28.575C165.208 29.2083 167.024 29.8583 169.308 30.525C170.974 30.9917 172.566 31.5917 174.083 32.325C175.599 33.0417 176.833 34.0583 177.783 35.375C178.749 36.675 179.233 38.4333 179.233 40.65ZM207.363 50V34.8H197.363V50H190.513V15.425H197.363V29.175H207.363V15.425H214.213V50H207.363ZM242.444 42.075H231.069L228.919 50H221.844L232.669 15.425H241.069L251.869 50H244.594L242.444 42.075ZM232.294 36.95H241.169L236.744 20.55L232.294 36.95ZM274.224 14.675C276.624 14.675 278.658 14.9917 280.324 15.625C281.991 16.2417 283.533 17.1333 284.949 18.3L281.474 22.425C280.491 21.5917 279.408 20.9583 278.224 20.525C277.058 20.0917 275.808 19.875 274.474 19.875C272.874 19.875 271.399 20.3 270.049 21.15C268.716 22 267.641 23.3667 266.824 25.25C266.024 27.1167 265.624 29.5833 265.624 32.65C265.624 35.6667 266.008 38.1083 266.774 39.975C267.558 41.8417 268.616 43.2083 269.949 44.075C271.299 44.925 272.824 45.35 274.524 45.35C276.324 45.35 277.816 45.0333 278.999 44.4C280.183 43.7667 281.249 43.075 282.199 42.325L285.424 46.4C284.208 47.6 282.683 48.625 280.849 49.475C279.033 50.325 276.824 50.75 274.224 50.75C271.208 50.75 268.516 50.0583 266.149 48.675C263.783 47.2917 261.924 45.2583 260.574 42.575C259.224 39.8917 258.549 36.5833 258.549 32.65C258.549 28.7833 259.241 25.5167 260.624 22.85C262.024 20.1667 263.908 18.1333 266.274 16.75C268.658 15.3667 271.308 14.675 274.224 14.675ZM301.405 50H294.555V15.425H301.405V50ZM301.655 31.55L312.555 15.425H319.905L308.805 31.05L320.855 50H312.78L301.655 31.55Z" fill="white"/>
</svg>
